# xmcd CD database file
#
# Track frame offsets:
#	150
#	13926
#	29626
#	44787
#	62735
#	76753
#	94433
#	113413
#	128467
#	145291
#	156929
#	172552
#	192436
#	213528
#
# Disc length: 2990 seconds
#
# Revision: 0
# Processed by: cddbd v1.5.1PL0 Copyright (c) Steve Scherf et al.
# Submitted via: CDex 1.51
#
DISCID=bf0bac0e
DTITLE=Owen Blundell - Early Mountain Sunrise
DYEAR=1996
DGENRE=Country
TTITLE0=Country Music's All I Play
TTITLE1=Riding Time Makes a Cowboy Smile
TTITLE2=The Curse of Love
TTITLE3=Crying Over You
TTITLE4=The Smoking Bass Man Blues
TTITLE5=Jodie
TTITLE6=Still Flying Free
TTITLE7=Hooked On A Married Man
TTITLE8=Man To Man
TTITLE9=Hard Hard Times
TTITLE10=Never Grow Old
TTITLE11=A Hurting Little Child
TTITLE12=Early Mountain Sunrise
TTITLE13=The Right Man For You
EXTD=YEAR: 1996
EXTT0=
EXTT1=
EXTT2=
EXTT3=
EXTT4=
EXTT5=
EXTT6=
EXTT7=
EXTT8=
EXTT9=
EXTT10=
EXTT11=
EXTT12=
EXTT13=
PLAYORDER=
